        <svg
          viewBox="0 0 1307 524"
          xmlns="http://www.w3.org/2000/svg"
          fill-rule="evenodd"
          clip-rule="evenodd"
          stroke-linejoin="round"
          stroke-miterlimit="2"
        >
          <path
            d="M1056.043 491.35S910.153 376.66 853.864 336.1C739.027 253.356 571.84 170.677 571.84 170.677c33.26-10.008 75.838-23.087 95.475-30.208C1081.094-9.634 656.51-55.776 269.706 83.111c-25.983 9.334-9.992 18.655-2.408 31.855 8.237 14.337 15.796 11.954 25.7 7.733 0 0 71.541-29.625 194.458-62.096 100.804-26.629 559.717-86.108 168.054 58.333-16.229 5.992-49.92 15.967-78.737 24.23 8.675-34.075 13.746-57.334 13.841-57.775 1.71-7.867-3.287-15.634-11.162-17.342-7.888-1.7-15.638 3.287-17.338 11.167-.108.495-6.745 30.933-17.845 73.137a4137.763 4137.763 0 01-17.23 4.783l-17.362 4.86s-2.546 24.282 15.017 22.395a1330.55 1330.55 0 019.97 3.225c-5.329 18.887-11.283 38.895-17.745 58.883-49.109 151.93-81.22 161.2-87.163 161.517-186.62 10.033-380.167-257.7-382.27-260.32-5.038-6.285-30.897.824-37.184 5.861-6.283 5.038-13.667 18.246-8.638 24.53 8.78 10.962 219.546 259.37 417.563 259.37 4.021 0 8.067-.104 12.075-.316 23.871-1.267 61.592-21.475 113.371-181.663 6.412-19.825 12.158-43.67 17.475-62.462 0 0 143.391 68.516 223.704 130.291 80.312 61.775 220.101 196.338 220.101 196.338 16.03 15.908 61.22-18.304 50.09-28.296zM714.247 282.8c-3.047 5.771-4.569 11.471-4.569 17.104 0 10.025 5.292 15.037 15.88 15.037 5.341 0 9.137-2.016 11.387-6.04 1.517-2.595 3.283-5.393 5.296-8.393-9.096-5.969-18.49-11.895-27.994-17.709zm24.82-28.389a2183.117 2183.117 0 0126.217 15.726 617.23 617.23 0 011.878-2.275c10.866-12.929 24.733-25.25 41.6-36.962 7.025-4.87 13.68-9.325 19.954-13.354.954-.613 1.825-1.167 2.716-1.746-.008.466-.045.933-.045 1.396 0 3.98 1.616 7.845 4.85 11.595 3.233 3.746 7.47 5.617 12.72 5.617 13.205 0 31.43-14.567 54.671-43.708-4.029 7.308-6.046 14.762-6.046 22.346 0 7.591 2.155 12.912 6.467 15.954 4.304 3.041 8.992 4.571 14.054 4.571 8.246 0 16.96-3.78 26.142-11.317a182.357 182.357 0 004.083-3.479c1.33 2.754 3.413 5.487 6.317 8.187 5.342 4.963 11.708 7.446 19.117 7.446 7.395 0 16.112-2.883 26.141-8.642 4.45-2.562 8.34-5.495 11.72-8.766.22.775.41 1.562.69 2.321 3.52 9.391 14.31 14.67 23.99 14.67 10.88 0 19.9-6.104 28.25-12.387 1.13-.854 2.4-1.746 3.72-2.688 1.29 3.213 3.18 5.992 5.69 8.325 4.03 3.846 9.23 5.767 15.6 5.767 6.37 0 14.59-3.517 24.67-10.542 10.07-7.029 18.99-15.608 26.77-25.72-1.87 4.212-2.8 9.112-2.8 14.687 0 5.575 1.77 10.658 5.33 15.246 3.57 4.592 9.11 6.892 16.65 6.892 5.88 0 12.27-2.305 19.17-6.855.27.105.5.205.8.317 3.32 1.263 5.99 1.892 8 1.892 2.02 0 4.48-2.013 7.38-6.042 10.03-13.492 19.33-24.946 27.9-34.362 8.57-9.413 18.98-20.07 31.2-31.97 12.23-11.897 19.88-17.993 22.98-18.272l.28.28c-6.93 8.153-10.4 15.462-10.4 21.924 0 2.904.82 5.433 2.46 7.592 1.64 2.154 3.94 3.23 6.89 3.23 2.95 0 5.6-1.497 7.93-4.497 4.41-5.904 9.22-13.137 14.41-21.712 5.21-8.57 7.8-14.688 7.8-18.338 0-3.654-1.24-6.633-3.72-8.929-2.49-2.296-5.65-3.442-9.49-3.442-15.55 0-34.38 12.56-56.5 37.663l5.91-8.854c8.15-12.175 12.22-20.467 12.22-24.88 0-2.804-1.12-4.212-3.36-4.212-10.04 0-17.15 2.667-21.37 8.012-2.25 2.81-5.16 7.305-8.71 13.496-1.69 2.996-6.85 11.71-15.46 26.138-8.62 14.43-14.98 25.204-19.05 32.325-1.16 2.025-2.23 3.883-3.22 5.591-.13.121-.23.26-.36.384-3 3.041-6.42 5.9-10.26 8.571-3.84 2.666-7.17 4.008-9.98 4.008-2.81 0-4.22-2.579-4.22-7.729 0-1.696.14-3 .42-3.942 1.41-7.587 4.52-16.746 9.35-27.47 4.83-10.73 9.23-19.542 13.21-26.426 3.99-6.883 6.58-10.937 7.81-12.158 1.21-1.213 1.82-3.133 1.82-5.763 0-4.87-3.56-7.308-10.68-7.308-3.1 0-5.41.45-6.96 1.333-1.54.896-3.44 3.025-5.69 6.4-.84-2.533-2.86-4.64-6.04-6.325-3.19-1.687-7.31-2.529-12.37-2.529-13.12 0-27.46 6.092-43.01 18.267a150.239 150.239 0 00-20.37 19.325 91.833 91.833 0 00-14.97 23.475c-2.22 5.004-3.77 9.992-4.69 14.967-3.3 2.895-6.63 5.745-10.22 8.275-4.08 2.87-23.12 14.333-23.12 1.987 0-15.025 9.61-29.612 16.45-42.358 10.43-19.479 21.31-38.813 32.95-57.596 1.19-1.913 3.38-7.32 5.68-7.488 2.15-.145 4.27-.35 6.41-.54 9.54-.872 19.07-1.826 28.61-2.768 4.68-.492 12.55-3.125 11.04-9.254-.72-2.9-5.02-6.529-7.03-8.65-4.87-5.154-18.04-2.108-24.26-1.633 3.8-7.663 9.69-14.242 13.46-21.959 2.75-5.616-4.6-6.246-8.26-7.133-7.73.987-10.02 1.408-15.26 7.742-5.7 6.87-10.56 14.5-15.51 21.916-14.47.642-86.763 6.917-98.067 17.01-2.742 2.444-7.804 9.015-3.417 12.253 3.304 2.45 7.917 2.941 11.908 2.766 7.896-.362 66.136-7.39 73.976-8.42-11.19 17.616-21.91 35.595-31.88 53.93-4.99 9.161-11.98 20.961-16.34 33.082-2.51 2.358-5.97 5.917-10.39 10.663-3.37 3.566-7.38 6.816-12.016 9.77-4.633 2.946-9.112 4.425-13.42 4.425-4.309 0-6.467-1.59-6.467-4.775 0-2.529.937-5.67 2.812-9.42.938-1.78 1.76-3.305 2.46-4.567.703-1.263 1.686-2.858 2.953-4.779 1.267-1.92 2.033-3.167 2.321-3.729 22.297-38.405 33.447-58.692 33.447-60.85 0-2.155-1.17-4.546-3.52-7.167-2.34-2.625-4.99-3.938-7.93-3.938-2.96 0-7.22 2.038-12.793 6.113-5.575 4.08-10.308 8.2-14.196 12.367-3.887 4.17-5.833 6.75-5.833 7.733 0 .983.958 2.508 2.88 4.571 1.92 2.062 2.882 3.437 2.882 4.141 0 .705-2.579 5.23-7.733 13.567-4.517 7.313-9.033 15.225-13.55 23.688-.846.787-2.367 2.362-4.65 4.837a483.762 483.762 0 01-8.363 8.858c-7.679 7.963-14.24 12.317-19.675 13.067-2.995 0-4.49-1.97-4.49-5.9 0-6.933 5.524-21.833 16.578-44.696.754-1.496 4.43-7.916 11.033-19.254 6.604-11.333 10.334-18.312 11.171-20.937 0-.846-.375-2.017-1.12-3.517-.75-1.496-1.405-2.292-1.972-2.383-.562-.096-1.358-.142-2.383-.142-6.375.187-11.579 1.592-15.6 4.212-1.32.846-3.304 3.138-5.979 6.892-2.67 3.742-5.408 8.358-8.225 13.838-2.804 5.483-13.163 17.97-31.054 37.454-17.896 19.491-29.096 29.233-33.588 29.233-1.037 0-1.55-.7-1.55-2.108 0-5.525 9.275-25.063 27.83-58.604 6.274-11.246 9.412-17.567 9.412-18.975 0-1.405-1.029-3.23-3.088-5.48-2.066-2.25-4.45-3.35-7.17-3.3-2.717.046-5.505 1.921-8.363 5.617-2.858 3.7-6.462 9.396-10.817 17.08-4.358 7.683-7.875 13.791-10.545 18.337-2.667 4.546-4.617 7.937-5.83 10.191-1.22 2.25-3.066 5.86-5.554 10.821a175.159 175.159 0 00-3.733 7.921c-16.167 8.767-34.196 21.938-54.1 39.588 21.646-38.042 42.817-71.917 63.525-101.613.1-.1.45-.429 1.058-.987a13.734 13.734 0 001.613-1.759c.471-.608.704-1.12.704-1.54 0-.426-.05-.73-.138-.918-.095-.183-.379-1.125-.845-2.813-.47-1.683-.984-2.833-1.546-3.44-.563-.61-2.017-.914-4.359-.914-2.34 0-4.308.046-5.904.138-5.433.287-9.975 2.533-13.629 6.746-1.783-3.655-5.858-5.475-12.233-5.475-6.367 0-13.909 1.683-22.62 5.054-8.718 3.375-17.597 8.18-26.639 14.404a178.1 178.1 0 00-25.225 21.083c-7.783 7.825-14.145 16.7-19.112 26.638-4.97 9.93-7.454 19.766-7.454 29.508 0 12.28 7.171 18.417 21.508 18.417 4.683 0 11.783-3.142 21.292-9.425 9.504-6.275 19.325-14.704 29.441-25.292-11.895 19.117-21.316 33.871-28.245 44.271-.567.654-3.988 3.517-10.263 8.571a151.14 151.14 0 00-6.308 5.386zm398.006-82.545c-3.94 4.875-11.9 12.492-23.89 22.838-12 10.358-19.3 15.533-21.93 15.533-1.87 0-2.81-1.64-2.81-4.92 0-3.276 2.55-9.37 7.66-18.267 5.1-8.9 10.7-16.542 16.79-22.913 17.15-17.8 33.74-26.704 49.76-26.704-12.75 17.521-21.27 29-25.58 34.433zm-367.945 12.371c-6.183 5.621-11.808 10.467-16.866 14.546-5.059 4.075-8.97 6.954-11.734 8.646-2.762 1.683-4.546 2.525-5.34 2.525-.8 0-1.197-.796-1.197-2.392 0-6.65 4.216-16.016 12.65-28.108 4.496-6.463 9.837-12.763 16.021-18.9 6.183-6.138 14.054-11.896 23.612-17.283 9.558-5.388 19.771-9.255 30.638-11.596-17.52 21.83-33.45 39.35-47.784 52.562z"
            fill="currentColor"
            fill-rule="nonzero"></path>
        </svg>
