<svg xmlns="http://www.w3.org/2000/svg" xml:space="preserve" style="fill-rule:evenodd;clip-rule:evenodd;stroke-linejoin:round;stroke-miterlimit:2" viewBox="0 0 260 261"><path d="M256 25.62C256 11.48 244.52 0 230.38 0H25.62C11.48 0 0 11.48 0 25.62v204.764c0 14.14 11.48 25.619 25.62 25.619h204.76c14.14 0 25.62-11.479 25.62-25.619V25.62Z" style="fill:#fff" transform="translate(.031 .031) scale(1.01562)"/><path d="M1060.21 495.516s-145.891-114.688-202.179-155.25c-114.837-82.742-282.025-165.421-282.025-165.421 33.259-10.008 75.838-23.087 95.475-30.208C1085.26-5.467 660.677-51.609 273.873 87.278c-25.983 9.334-9.992 18.655-2.408 31.855 8.237 14.337 15.796 11.954 25.7 7.733 0 0 71.541-29.625 194.458-62.096 100.804-26.629 559.717-86.108 168.054 58.333-16.229 5.992-49.921 15.967-78.737 24.23 8.675-34.075 13.746-57.334 13.841-57.775 1.709-7.867-3.287-15.634-11.162-17.342-7.888-1.7-15.638 3.287-17.338 11.167-.108.495-6.745 30.933-17.845 73.137a4137.763 4137.763 0 0 1-17.23 4.783l-17.362 4.859s-2.546 24.283 15.017 22.396a1330.55 1330.55 0 0 1 9.97 3.225c-5.329 18.887-11.283 38.895-17.745 58.883-49.109 151.929-81.221 161.2-87.163 161.517-186.621 10.033-380.167-257.7-382.271-260.321-5.037-6.284-30.896.825-37.183 5.862-6.283 5.038-13.667 18.246-8.638 24.529 8.78 10.963 219.546 259.371 417.563 259.371 4.021 0 8.067-.104 12.075-.316 23.871-1.267 61.592-21.475 113.371-181.663 6.412-19.825 12.158-43.671 17.475-62.462 0 0 143.391 68.516 223.704 130.291 80.312 61.775 220.101 196.338 220.101 196.338 16.03 15.908 61.22-18.304 50.09-28.296Z" style="fill:#231f20;fill-rule:nonzero" transform="translate(8.047 69.131) scale(.22878)"/></svg>